<?xml version="1.0" encoding="UTF-8" standalone="no"?>
<!DOCTYPE svg PUBLIC "-//W3C//DTD SVG 20010904//EN"
              "http://www.w3.org/TR/2001/REC-SVG-20010904/DTD/svg10.dtd">

<svg xmlns="http://www.w3.org/2000/svg"
     width="291.082mm" height="291.082mm"
     viewBox="0 0 1100 1100">
  <path id="選択範囲 #2"
        fill="black" stroke="" stroke-width="1"
        d="M 224.00,0.11
           C 224.00,0.11 193.00,4.45 193.00,4.45
             171.19,8.81 149.79,16.05 130.00,26.26
             66.67,58.92 21.89,117.58 6.58,187.00
             3.86,199.32 1.02,218.52 1.00,231.00
             1.00,231.00 1.00,861.00 1.00,861.00
             1.02,873.48 3.86,892.68 6.58,905.00
             26.70,996.26 96.74,1066.30 188.00,1086.42
             200.32,1089.14 219.52,1091.98 232.00,1092.00
             232.00,1092.00 862.00,1092.00 862.00,1092.00
             874.48,1091.98 893.68,1089.14 906.00,1086.42
             997.26,1066.30 1067.30,996.26 1087.42,905.00
             1090.14,892.68 1092.98,873.48 1093.00,861.00
             1093.00,861.00 1093.00,231.00 1093.00,231.00
             1092.98,218.52 1090.14,199.32 1087.42,187.00
             1067.30,95.74 997.26,25.70 906.00,5.58
             893.68,2.86 874.48,0.02 862.00,0.11
             862.00,0.11 437.00,0.11 437.00,0.11
             437.00,0.11 296.00,0.11 296.00,0.11
             296.00,0.11 224.00,0.11 224.00,0.11 Z" />
</svg>
