<?xml version="1.0" encoding="UTF-8" standalone="no"?>
<!DOCTYPE svg PUBLIC "-//W3C//DTD SVG 20010904//EN"
              "http://www.w3.org/TR/2001/REC-SVG-20010904/DTD/svg10.dtd">

<svg xmlns="http://www.w3.org/2000/svg"
     width="291.082mm" height="291.082mm"
     viewBox="0 0 1100 1100">
  <path id="#2"
        fill="white" stroke="black" stroke-width="1"
        d="M 247.00,30.11
           C 247.00,30.11 230.00,32.27 230.00,32.27
             210.79,35.10 188.65,41.23 171.00,49.31
             106.32,78.93 59.67,136.08 45.60,206.00
             43.33,217.31 41.02,232.56 41.00,244.00
             41.00,244.00 41.00,835.00 41.00,835.00
             41.02,846.44 43.33,861.69 45.60,873.00
             61.36,951.36 117.50,1012.84 193.00,1038.00
             210.80,1043.93 236.27,1048.97 255.00,1049.00
             255.00,1049.00 846.00,1049.00 846.00,1049.00
             857.44,1048.98 872.69,1046.67 884.00,1044.40
             962.36,1028.64 1023.84,972.50 1049.00,897.00
             1054.93,879.20 1059.97,853.73 1060.00,835.00
             1060.00,835.00 1060.00,244.00 1060.00,244.00
             1059.98,232.56 1057.67,217.31 1055.40,206.00
             1039.64,127.64 983.50,66.16 908.00,41.00
             890.20,35.07 864.73,30.03 846.00,30.11
             846.00,30.11 447.00,30.11 447.00,30.11
             447.00,30.11 315.00,30.11 315.00,30.11
             315.00,30.11 247.00,30.11 247.00,30.11 Z" />
  <path id="#1"
        fill="black" stroke="" stroke-width="1"
        d="M 269.00,107.11
           C 244.32,110.95 228.81,113.50 206.00,125.26
             160.16,148.89 127.16,193.04 118.59,244.00
             117.28,251.75 116.01,260.15 116.00,268.00
             116.00,268.00 116.00,810.00 116.00,810.00
             116.01,817.85 117.28,826.25 118.59,834.00
             129.35,898.01 178.17,950.10 241.00,965.87
             251.26,968.45 266.50,970.98 277.00,971.00
             277.00,971.00 825.00,971.00 825.00,971.00
             832.85,970.99 841.25,969.72 849.00,968.41
             913.01,957.65 965.10,908.83 980.87,846.00
             983.45,835.74 985.98,820.50 986.00,810.00
             986.00,810.00 986.00,268.00 986.00,268.00
             985.99,260.15 984.72,251.75 983.41,244.00
             972.65,179.99 923.83,127.90 861.00,112.13
             850.74,109.55 835.50,107.02 825.00,107.11
             825.00,107.11 455.00,107.11 455.00,107.11
             455.00,107.11 332.00,107.11 332.00,107.11
             332.00,107.11 269.00,107.11 269.00,107.11 Z" />
</svg>
