<?xml version="1.0" encoding="UTF-8" standalone="no"?>
<!DOCTYPE svg PUBLIC "-//W3C//DTD SVG 20010904//EN"
              "http://www.w3.org/TR/2001/REC-SVG-20010904/DTD/svg10.dtd">

<svg xmlns="http://www.w3.org/2000/svg"
     width="285.79mm" height="291.082mm"
     viewBox="0 0 1080 1100">
  <path id="選択範囲 コピー"
        fill="black" stroke="" stroke-width="1"
        d="M 231.22,4.55
           C 231.22,4.55 212.69,6.92 212.69,6.92
             190.46,10.19 164.10,17.62 144.00,27.61
             121.87,38.59 103.56,50.11 85.12,66.77
             40.86,106.74 11.96,165.15 7.61,224.68
             7.61,224.68 6.62,237.76 6.62,237.76
             6.62,237.76 6.62,305.36 6.62,305.36
             6.62,305.36 6.62,428.56 6.62,428.56
             6.62,428.56 6.62,618.28 6.62,618.28
             6.62,618.28 6.62,697.87 6.62,697.87
             6.62,697.87 7.61,710.95 7.61,710.95
             11.39,762.68 34.60,815.82 69.95,853.78
             88.41,873.60 110.43,890.56 134.18,903.59
             134.18,903.59 149.45,910.76 149.45,910.76
             149.45,910.76 187.61,929.29 187.61,929.29
             187.61,929.29 280.28,975.62 280.28,975.62
             280.28,975.62 319.53,994.70 319.53,994.70
             319.53,994.70 442.74,1055.75 442.74,1055.75
             442.74,1055.75 477.63,1073.20 477.63,1073.20
             485.11,1076.94 489.76,1080.44 498.34,1080.56
             498.34,1080.56 569.21,1080.56 569.21,1080.56
             581.45,1080.54 586.92,1076.30 597.56,1071.02
             597.56,1071.02 624.82,1057.95 624.82,1057.95
             624.82,1057.95 743.66,1001.25 743.66,1001.25
             743.66,1001.25 825.43,962.53 825.43,962.53
             825.43,962.53 887.58,932.62 887.58,932.62
             887.58,932.62 912.66,920.62 912.66,920.62
             937.95,909.01 955.91,902.65 979.16,885.52
             1029.03,848.81 1061.73,797.80 1073.80,737.12
             1076.03,725.92 1078.36,709.16 1078.38,697.87
             1078.38,697.87 1078.38,237.76 1078.38,237.76
             1078.36,225.29 1075.84,208.66 1073.36,196.33
             1056.18,110.90 994.97,43.87 912.66,16.43
             893.25,9.96 865.48,4.47 845.06,4.55
             845.06,4.55 436.20,4.55 436.20,4.55
             436.20,4.55 301.00,4.55 301.00,4.55
             301.00,4.55 231.22,4.55 231.22,4.55 Z" />
</svg>
