<?xml version="1.0" encoding="UTF-8" standalone="no"?>
<!DOCTYPE svg PUBLIC "-//W3C//DTD SVG 20010904//EN"
              "http://www.w3.org/TR/2001/REC-SVG-20010904/DTD/svg10.dtd">

<svg xmlns="http://www.w3.org/2000/svg"
     width="285.79mm" height="291.082mm"
     viewBox="0 0 1080 1100">
  <path id="選択範囲"
        fill="white" stroke="" stroke-width="1"
        d="M 257.00,49.11
           C 257.00,49.11 240.00,51.27 240.00,51.27
             219.62,54.27 195.44,61.09 177.00,70.25
             156.71,80.32 139.92,90.89 123.00,106.17
             82.41,142.83 55.90,196.41 51.91,251.00
             51.91,251.00 51.00,263.00 51.00,263.00
             51.00,263.00 51.00,325.00 51.00,325.00
             51.00,325.00 51.00,438.00 51.00,438.00
             51.00,438.00 51.00,612.00 51.00,612.00
             51.00,612.00 51.00,685.00 51.00,685.00
             51.00,685.00 51.91,697.00 51.91,697.00
             55.38,744.45 76.67,793.19 109.09,828.00
             126.02,846.18 146.21,861.73 168.00,873.69
             168.00,873.69 182.00,880.26 182.00,880.26
             182.00,880.26 217.00,897.26 217.00,897.26
             217.00,897.26 302.00,939.75 302.00,939.75
             302.00,939.75 338.00,957.25 338.00,957.25
             338.00,957.25 451.00,1013.25 451.00,1013.25
             451.00,1013.25 483.00,1029.25 483.00,1029.25
             489.87,1032.68 494.13,1035.89 502.00,1036.00
             502.00,1036.00 567.00,1036.00 567.00,1036.00
             578.23,1035.98 583.24,1032.09 593.00,1027.25
             593.00,1027.25 618.00,1015.26 618.00,1015.26
             618.00,1015.26 727.00,963.26 727.00,963.26
             727.00,963.26 802.00,927.74 802.00,927.74
             802.00,927.74 859.00,900.31 859.00,900.31
             859.00,900.31 882.00,889.31 882.00,889.31
             905.20,878.65 921.67,872.82 943.00,857.12
             988.73,823.44 1018.73,776.66 1029.80,721.00
             1031.84,710.73 1033.98,695.35 1034.00,685.00
             1034.00,685.00 1034.00,263.00 1034.00,263.00
             1033.98,251.56 1031.67,236.31 1029.40,225.00
             1013.64,146.64 957.50,85.16 882.00,60.00
             864.20,54.07 838.73,49.03 820.00,49.11
             820.00,49.11 445.00,49.11 445.00,49.11
             445.00,49.11 321.00,49.11 321.00,49.11
             321.00,49.11 257.00,49.11 257.00,49.11 Z" />
  <path id="選択範囲 #1"
        fill="black" stroke="" stroke-width="1"
        d="M 264.00,144.11
           C 247.55,146.81 235.30,148.85 220.00,156.26
             208.39,161.88 198.78,167.78 189.00,176.29
             162.39,199.44 144.06,236.42 144.00,272.00
             144.00,272.00 144.00,331.00 144.00,331.00
             144.00,331.00 144.00,454.00 144.00,454.00
             144.00,454.00 144.00,676.00 144.00,676.00
             144.06,716.25 166.63,756.37 199.00,779.57
             213.48,789.95 228.95,795.94 245.00,803.31
             245.00,803.31 266.00,813.31 266.00,813.31
             266.00,813.31 318.00,838.22 318.00,838.22
             318.00,838.22 407.00,880.26 407.00,880.26
             407.00,880.26 466.00,908.26 466.00,908.26
             466.00,908.26 489.00,919.25 489.00,919.25
             493.33,921.40 501.51,925.77 506.00,926.62
             509.65,927.31 514.84,926.05 519.00,926.00
             519.00,926.00 550.00,926.00 550.00,926.00
             550.00,926.00 564.00,926.61 564.00,926.61
             568.75,925.77 577.22,920.99 582.00,918.86
             582.00,918.86 626.00,898.31 626.00,898.31
             626.00,898.31 775.00,828.78 775.00,828.78
             775.00,828.78 835.00,800.86 835.00,800.86
             835.00,800.86 850.00,795.19 850.00,795.19
             862.60,790.31 874.45,783.41 885.00,775.00
             913.95,751.92 933.94,713.34 934.00,676.00
             934.00,676.00 934.00,272.00 934.00,272.00
             933.89,204.26 873.74,144.11 806.00,144.11
             806.00,144.11 445.00,144.11 445.00,144.11
             445.00,144.11 326.00,144.11 326.00,144.11
             326.00,144.11 264.00,144.11 264.00,144.11 Z" />
</svg>
