<?xml version="1.0" encoding="UTF-8" standalone="no"?>
<!DOCTYPE svg PUBLIC "-//W3C//DTD SVG 20010904//EN"
              "http://www.w3.org/TR/2001/REC-SVG-20010904/DTD/svg10.dtd">

<svg xmlns="http://www.w3.org/2000/svg"
     width="285.79mm" height="285.79mm"
     viewBox="0 0 1080 1080">
  <path id="選択範囲"
        fill="black" stroke="" stroke-width="1"
        d="M 0.00,1080.00
           C 0.00,1080.00 584.00,1080.00 584.00,1080.00
             596.38,1079.98 623.14,1075.74 636.00,1073.42
             671.91,1066.95 707.11,1056.96 741.00,1043.40
             896.47,981.21 1013.57,850.88 1059.42,690.00
             1069.08,656.10 1075.63,621.15 1078.09,586.00
             1078.09,586.00 1080.00,527.00 1080.00,527.00
             1080.00,527.00 1074.27,463.00 1074.27,463.00
             1069.32,428.64 1059.86,390.60 1047.95,358.00
             989.67,198.52 862.23,76.45 700.00,26.02
             662.94,14.50 622.70,6.62 584.00,3.91
             584.00,3.91 555.00,2.00 555.00,2.00
             555.00,2.00 525.00,2.00 525.00,2.00
             525.00,2.00 496.00,3.91 496.00,3.91
             496.00,3.91 444.00,10.58 444.00,10.58
             342.12,28.95 246.80,76.47 171.00,147.09
             153.34,163.54 137.17,181.47 121.75,200.00
             63.96,269.48 24.59,357.21 8.58,446.00
             8.58,446.00 0.01,506.04 0.00,515.00
             0.00,515.00 0.00,1080.00 0.00,1080.00 Z" />
</svg>
