<?xml version="1.0" encoding="UTF-8" standalone="no"?>
<!DOCTYPE svg PUBLIC "-//W3C//DTD SVG 20010904//EN"
              "http://www.w3.org/TR/2001/REC-SVG-20010904/DTD/svg10.dtd">

<svg xmlns="http://www.w3.org/2000/svg"
     width="291.082mm" height="291.082mm"
     viewBox="0 0 1100 1100">
  <path id="選択範囲 #4"
        fill="white" stroke="" stroke-width="1"
        d="M 805.00,785.00
           C 805.00,785.00 699.00,785.00 699.00,785.00
             682.00,785.03 675.03,792.00 675.00,809.00
             675.00,809.00 675.00,851.00 675.00,851.00
             675.03,868.00 682.00,874.97 699.00,875.00
             699.00,875.00 805.00,875.00 805.00,875.00
             805.00,875.00 805.00,981.00 805.00,981.00
             805.03,998.00 812.00,1004.97 829.00,1005.00
             829.00,1005.00 871.00,1005.00 871.00,1005.00
             888.00,1004.97 894.97,998.00 895.00,981.00
             895.00,981.00 895.00,875.00 895.00,875.00
             895.00,875.00 1001.00,875.00 1001.00,875.00
             1018.00,874.97 1024.97,868.00 1025.00,851.00
             1025.00,851.00 1025.00,809.00 1025.00,809.00
             1024.97,792.00 1018.00,785.03 1001.00,785.00
             1001.00,785.00 895.00,785.00 895.00,785.00
             895.00,785.00 895.00,679.00 895.00,679.00
             894.97,662.00 888.00,655.03 871.00,655.00
             871.00,655.00 829.00,655.00 829.00,655.00
             812.00,655.03 805.03,662.00 805.00,679.00
             805.00,679.00 805.00,785.00 805.00,785.00 Z" />
</svg>
