<?xml version="1.0" encoding="UTF-8" standalone="no"?>
<!DOCTYPE svg PUBLIC "-//W3C//DTD SVG 20010904//EN"
              "http://www.w3.org/TR/2001/REC-SVG-20010904/DTD/svg10.dtd">

<svg xmlns="http://www.w3.org/2000/svg"
     width="291.082mm" height="291.082mm"
     viewBox="0 0 1100 1100">
  <path id="選択範囲"
        fill="white" stroke="" stroke-width="1"
        d="M 375.00,859.00
           C 375.05,877.21 385.18,896.82 402.00,905.02
             416.82,912.24 437.12,909.83 451.00,901.55
             473.11,888.37 483.15,864.07 491.68,841.00
             494.38,833.70 498.85,821.46 500.00,814.00
             500.00,814.00 463.00,814.00 463.00,814.00
             460.52,824.57 452.78,839.91 444.00,846.39
             440.12,849.26 433.91,852.34 429.00,850.77
             416.86,846.88 417.24,822.58 416.81,812.00
             416.89,807.99 415.60,803.81 416.81,800.00
             416.81,800.00 435.22,763.00 435.22,763.00
             435.22,763.00 479.25,672.00 479.25,672.00
             479.25,672.00 494.25,641.00 494.25,641.00
             497.20,635.10 502.29,625.98 504.00,620.00
             504.00,620.00 438.00,620.00 438.00,620.00
             428.49,620.02 429.64,620.22 422.75,634.00
             422.75,634.00 403.00,675.00 403.00,675.00
             398.78,663.73 396.43,657.62 388.54,648.00
             379.19,636.60 367.50,626.40 354.00,620.31
             324.35,606.94 282.99,612.22 255.00,627.59
             204.76,655.17 172.39,701.06 161.20,757.00
             159.47,765.66 157.10,779.34 157.00,788.00
             157.00,788.00 157.00,801.00 157.00,801.00
             157.05,833.24 170.52,873.55 198.00,892.25
             206.50,898.04 215.13,901.79 225.00,904.57
             231.55,906.42 246.29,908.92 253.00,909.00
             271.76,909.22 282.39,909.75 301.00,905.35
             327.87,898.99 356.85,879.45 375.00,859.00 Z
           M 315.00,656.71
           C 349.43,658.50 362.09,693.97 366.13,723.00
             366.91,728.60 368.72,740.88 367.61,746.00
             367.61,746.00 354.25,774.00 354.25,774.00
             343.51,795.48 326.36,825.86 309.96,843.00
             299.15,854.30 286.15,864.39 270.00,865.68
             265.63,866.02 258.98,864.52 255.00,862.68
             238.68,855.11 232.20,837.01 232.00,820.00
             231.74,797.39 236.16,774.87 241.63,753.00
             246.88,731.97 253.31,710.56 264.81,692.00
             275.88,674.15 292.87,657.21 315.00,656.71 Z" />
</svg>
