<?xml version="1.0" encoding="UTF-8" standalone="no"?>
<!DOCTYPE svg PUBLIC "-//W3C//DTD SVG 20010904//EN"
              "http://www.w3.org/TR/2001/REC-SVG-20010904/DTD/svg10.dtd">

<svg xmlns="http://www.w3.org/2000/svg"
     width="11.2516in" height="12.8351in"
     viewBox="0 0 1080 1232">
  <path id="#3"
        fill="black" stroke="" stroke-width="1"
        d="
           M 228.94,228.99
           C 228.94,228.99 369.83,116.05 369.83,116.05
             369.83,116.05 483.66,24.54 483.66,24.54
             483.66,24.54 520.53,-6.93 529.88,-6.93
             540.31,-6.93 580.59,29.04 580.59,29.04
             580.59,29.04 713.59,135.44 713.59,135.44
             713.59,135.44 825.17,224.68 825.17,224.68
             825.17,224.68 912.45,297.59 930.55,317.01
             1000.43,392.01 1050.84,490.34 1067.58,591.46
             1067.58,591.46 1074.25,646.68 1074.25,646.68
             1074.25,646.68 1074.68,699.38 1074.25,719.95
             1074.01,740.55 1066.93,781.43 1062.34,802.22
             1046.07,875.87 1012.89,948.18 967.60,1008.48
             935.07,1051.79 894.08,1092.56 849.97,1124.09
             690.28,1238.21 482.74,1257.92 304.46,1176.07
             253.85,1152.83 187.24,1111.04 148.92,1071.59
             108.08,1030.75 62.99,963.32 39.44,910.42
             2.93,828.42 -11.04,755.27 -9.99,665.85
             -8.49,632.78 -4.11,602.80 -1.45,586.95
             10.04,518.50 38.54,447.97 76.01,389.71
             97.23,356.71 120.04,328.42 147.79,300.67
             155.19,293.28 228.94,228.99 228.94,228.99 Z" />
</svg>
