<?xml version="1.0" encoding="UTF-8" standalone="no"?>
<!DOCTYPE svg PUBLIC "-//W3C//DTD SVG 20010904//EN"
              "http://www.w3.org/TR/2001/REC-SVG-20010904/DTD/svg10.dtd">

<svg xmlns="http://www.w3.org/2000/svg"
     width="11.2516in" height="12.8351in"
     viewBox="0 0 1080 1232">
  <path id="#2"
        fill="white" stroke="" stroke-width="1"
        d="M 264.00,278.40
           C 264.00,278.40 389.00,178.20 389.00,178.20
             389.00,178.20 490.00,97.00 490.00,97.00
             490.00,97.00 522.71,69.08 531.00,69.08
             540.26,69.08 576.00,101.00 576.00,101.00
             576.00,101.00 694.00,195.40 694.00,195.40
             694.00,195.40 793.00,274.58 793.00,274.58
             793.00,274.58 870.44,339.26 886.50,356.50
             948.49,423.04 993.23,510.28 1008.08,600.00
             1008.08,600.00 1014.00,649.00 1014.00,649.00
             1014.00,649.00 1014.38,695.75 1014.00,714.00
             1013.78,732.28 1007.50,768.55 1003.42,787.00
             988.99,852.35 959.56,916.50 919.37,970.00
             890.51,1008.43 854.14,1044.60 815.00,1072.57
             673.32,1173.83 489.18,1191.32 331.00,1118.69
             286.10,1098.08 227.00,1061.00 193.00,1026.00
             156.77,989.77 116.76,929.94 95.86,883.00
             63.47,810.24 51.08,745.34 52.00,666.00
             53.33,636.67 57.23,610.06 59.59,596.00
             69.78,535.27 95.07,472.69 128.31,421.00
             147.13,391.72 167.38,366.62 192.00,342.00
             198.56,335.44 264.00,278.40 264.00,278.40 Z
         " />
  <path id="#1"
        fill="black" stroke="" stroke-width="1"
        d="M 480.00,301.28
           C 457.82,304.20 434.30,309.54 413.00,316.34
             315.34,347.56 231.04,419.55 186.26,512.00
             124.04,640.47 136.00,792.15 220.15,908.00
             243.72,940.44 271.72,968.36 304.00,992.12
             335.48,1015.29 371.91,1033.98 409.00,1046.33
             440.97,1056.98 463.00,1062.00 517.00,1066.00
             563.68,1066.54 604.29,1061.95 649.00,1047.66
             763.40,1011.09 853.11,922.95 893.31,810.00
             905.28,776.35 911.66,741.51 914.09,706.00
             915.00,688.33 915.00,680.33 914.09,658.00
             912.51,634.89 909.51,612.54 903.87,590.00
             887.25,523.47 856.84,468.21 810.09,418.00
             764.05,370.92 689.53,325.75 623.00,309.13
             600.46,303.49 578.11,300.49 555.00,298.91
             535.50,297.75 515.38,296.67 480.00,301.28 Z
         " />
</svg>
