<?xml version="1.0" encoding="UTF-8" standalone="no"?>
<!DOCTYPE svg PUBLIC "-//W3C//DTD SVG 20010904//EN"
              "http://www.w3.org/TR/2001/REC-SVG-20010904/DTD/svg10.dtd">

<svg xmlns="http://www.w3.org/2000/svg"
     width="291.082mm" height="291.082mm"
     viewBox="0 0 1100 1100">
  <path id="選択範囲 #3"
        fill="white" stroke="" stroke-width="1"
        d="M 205.00,923.00
           C 205.00,923.00 274.00,923.00 274.00,923.00
             274.00,923.00 278.00,901.00 278.00,901.00
             293.31,907.59 303.63,912.97 321.00,913.00
             335.35,913.02 342.65,913.71 357.00,910.11
             395.47,900.44 428.51,872.30 444.42,836.00
             447.86,828.16 449.91,823.33 452.29,815.00
             461.31,783.39 462.92,729.90 429.00,712.00
             442.29,698.70 452.68,685.38 460.13,668.00
             463.76,659.51 466.89,647.24 467.00,638.00
             467.13,626.28 467.36,619.37 463.30,608.00
             454.55,583.48 432.98,567.01 408.00,561.42
             400.17,559.67 393.85,559.45 386.00,558.91
             386.00,558.91 378.00,558.08 378.00,558.08
             378.00,558.08 370.00,559.04 370.00,559.04
             370.00,559.04 361.00,559.04 361.00,559.04
             352.23,560.01 341.28,562.69 333.00,565.69
             325.40,568.45 315.80,573.33 309.00,577.70
             267.31,604.51 260.76,647.21 251.80,692.00
             251.80,692.00 209.20,905.00 209.20,905.00
             209.20,905.00 205.00,923.00 205.00,923.00 Z
           M 319.00,703.00
           C 317.76,699.26 319.04,695.81 319.80,692.00
             319.80,692.00 323.60,673.00 323.60,673.00
             327.90,651.50 330.59,629.51 348.00,614.18
             353.25,609.56 359.12,606.14 366.00,604.43
             369.42,603.94 375.53,603.75 379.00,604.43
             390.86,605.68 396.75,616.07 397.83,627.00
             399.08,639.71 391.88,661.56 386.24,673.00
             384.81,675.92 380.87,683.53 378.91,685.71
             377.94,686.78 377.25,687.34 375.82,687.67
             375.82,687.67 355.00,685.64 355.00,685.64
             350.64,684.90 350.13,685.35 346.00,685.64
             333.62,687.33 324.51,690.92 319.00,703.00 Z
           M 318.00,704.00
           C 318.00,704.00 318.00,705.00 318.00,705.00
             318.00,705.00 317.00,704.00 317.00,704.00
             317.00,704.00 318.00,704.00 318.00,704.00 Z
           M 317.00,709.00
           C 317.00,709.00 317.00,710.00 317.00,710.00
             317.00,710.00 316.00,709.00 316.00,709.00
             316.00,709.00 317.00,709.00 317.00,709.00 Z
           M 316.00,714.00
           C 316.74,717.93 317.35,721.46 319.36,725.00
             327.82,739.82 345.42,739.07 360.00,739.01
             363.39,738.98 371.25,737.55 373.61,739.01
             376.13,740.59 378.30,746.23 379.31,749.00
             382.47,757.70 384.16,766.78 384.82,776.00
             385.17,780.94 382.87,796.63 381.80,802.00
             377.33,824.48 369.96,847.40 350.00,860.91
             333.63,871.98 317.06,869.32 301.00,859.32
             295.89,856.13 288.29,852.97 289.06,846.00
             289.06,846.00 294.40,819.00 294.40,819.00
             294.40,819.00 303.60,773.00 303.60,773.00
             303.60,773.00 311.40,734.00 311.40,734.00
             312.41,728.96 314.08,718.16 316.00,714.00 Z
           M 182.00,987.00
           C 179.82,993.29 174.36,1001.67 183.00,1005.00
             183.00,1005.00 182.00,987.00 182.00,987.00 Z" />
</svg>
