<?xml version="1.0" encoding="UTF-8" standalone="no"?>
<!DOCTYPE svg PUBLIC "-//W3C//DTD SVG 20010904//EN"
              "http://www.w3.org/TR/2001/REC-SVG-20010904/DTD/svg10.dtd">

<svg xmlns="http://www.w3.org/2000/svg"
     width="285.79mm" height="335.009mm"
     viewBox="0 0 1080 1266">
  <path id="選択範囲"
        fill="black" stroke="" stroke-width="1"
        d="M 541.00,14.00
           C 541.00,14.00 506.83,52.00 506.83,52.00
             506.83,52.00 436.72,130.00 436.72,130.00
             436.72,130.00 410.72,159.00 410.72,159.00
             408.92,161.04 402.38,168.95 399.91,168.96
             397.83,168.96 395.46,166.39 394.00,165.08
             394.00,165.08 382.00,154.04 382.00,154.04
             382.00,154.04 349.00,123.72 349.00,123.72
             343.08,118.50 339.54,113.69 331.00,113.10
             318.35,112.22 314.32,120.04 308.26,129.00
             308.26,129.00 298.13,143.00 298.13,143.00
             298.13,143.00 226.63,241.00 226.63,241.00
             226.63,241.00 131.85,371.00 131.85,371.00
             131.85,371.00 83.76,437.00 83.76,437.00
             83.76,437.00 78.99,446.00 78.99,446.00
             44.08,506.50 22.01,561.04 9.58,630.00
             9.58,630.00 2.91,682.00 2.91,682.00
             2.91,682.00 2.00,692.00 2.00,692.00
             2.00,692.00 1.00,711.00 1.00,711.00
             1.00,711.00 1.00,741.00 1.00,741.00
             1.00,741.00 2.00,759.00 2.00,759.00
             2.00,759.00 5.28,795.00 5.28,795.00
             15.84,879.69 48.86,965.09 97.72,1035.00
             132.16,1084.28 174.43,1127.42 223.00,1162.85
             380.62,1277.83 590.01,1297.97 767.00,1216.69
             830.39,1187.58 886.80,1146.35 934.96,1096.00
             1008.15,1019.48 1058.36,914.48 1074.58,810.00
             1074.58,810.00 1080.00,758.00 1080.00,758.00
             1080.00,758.00 1080.00,694.00 1080.00,694.00
             1079.97,675.87 1075.43,647.29 1072.25,629.00
             1059.68,556.77 1030.27,485.90 989.67,425.00
             989.67,425.00 962.55,388.00 962.55,388.00
             962.55,388.00 934.37,353.00 934.37,353.00
             934.37,353.00 876.85,274.00 876.85,274.00
             876.85,274.00 814.00,188.00 814.00,188.00
             814.00,188.00 773.15,132.00 773.15,132.00
             766.63,123.02 764.38,113.16 751.00,114.10
             741.28,114.78 737.33,123.88 731.00,129.96
             731.00,129.96 704.00,154.72 704.00,154.72
             698.92,159.19 687.60,169.02 684.00,174.00
             684.00,174.00 645.72,131.00 645.72,131.00
             645.72,131.00 585.16,63.00 585.16,63.00
             585.16,63.00 555.07,29.00 555.07,29.00
             555.07,29.00 541.00,14.00 541.00,14.00 Z" />
</svg>
