<?xml version="1.0" encoding="UTF-8" standalone="no"?>
<!DOCTYPE svg PUBLIC "-//W3C//DTD SVG 20010904//EN"
              "http://www.w3.org/TR/2001/REC-SVG-20010904/DTD/svg10.dtd">

<svg xmlns="http://www.w3.org/2000/svg"
     width="285.79mm" height="335.009mm"
     viewBox="0 0 1080 1266">
  <path id="選択範囲 #1"
        fill="white" stroke="" stroke-width="1"
        d="M 115.00,493.00
           C 116.64,496.13 110.37,505.69 108.64,509.00
             108.64,509.00 89.20,552.00 89.20,552.00
             70.47,599.65 59.19,650.88 56.96,702.00
             56.96,702.00 56.00,713.00 56.00,713.00
             55.56,751.25 57.92,787.39 65.45,825.00
             82.85,912.01 123.70,991.27 183.17,1057.00
             183.17,1057.00 199.00,1073.00 199.00,1073.00
             267.55,1141.55 355.73,1187.78 451.00,1205.61
             471.89,1209.52 492.80,1212.12 514.00,1213.04
             514.00,1213.04 525.00,1214.00 525.00,1214.00
             525.00,1214.00 555.00,1214.00 555.00,1214.00
             555.00,1214.00 583.00,1212.09 583.00,1212.09
             652.67,1207.00 723.57,1183.74 784.00,1149.00
             818.90,1128.93 851.52,1104.48 880.00,1076.00
             880.00,1076.00 898.83,1057.00 898.83,1057.00
             934.41,1017.67 964.24,972.75 985.28,924.00
             1008.22,870.86 1022.52,813.88 1025.04,756.00
             1025.04,756.00 1026.00,743.00 1026.00,743.00
             1026.00,743.00 1026.00,713.00 1026.00,713.00
             1026.00,713.00 1025.09,703.00 1025.09,703.00
             1025.09,703.00 1024.17,688.00 1024.17,688.00
             1017.24,616.40 999.45,555.31 964.69,492.00
             955.79,475.78 942.70,455.83 931.63,441.00
             931.63,441.00 907.74,410.00 907.74,410.00
             907.74,410.00 839.14,311.00 839.14,311.00
             839.14,311.00 778.72,224.00 778.72,224.00
             778.72,224.00 766.33,206.00 766.33,206.00
             764.57,203.39 761.52,198.53 758.83,197.02
             756.64,195.79 753.46,196.00 751.00,196.00
             751.00,196.00 731.00,196.00 731.00,196.00
             719.71,196.02 718.48,200.71 711.42,209.00
             711.42,209.00 695.27,228.00 695.27,228.00
             692.75,230.95 685.03,241.91 681.04,240.80
             678.82,240.19 673.95,233.97 672.27,232.00
             672.27,232.00 652.00,208.00 652.00,208.00
             652.00,208.00 584.42,128.00 584.42,128.00
             584.42,128.00 566.73,107.00 566.73,107.00
             564.44,104.31 559.89,98.51 556.99,97.02
             555.24,96.13 539.84,95.04 537.00,95.00
             534.05,94.97 529.61,94.70 527.00,96.02
             523.75,97.67 518.02,104.93 515.42,108.00
             515.42,108.00 495.08,132.00 495.08,132.00
             495.08,132.00 429.42,209.00 429.42,209.00
             429.42,209.00 409.92,232.00 409.92,232.00
             408.22,234.04 401.42,242.40 399.72,243.37
             396.95,244.94 394.95,242.78 393.01,240.96
             393.01,240.96 381.00,228.00 381.00,228.00
             381.00,228.00 360.00,206.00 360.00,206.00
             357.61,203.61 352.79,198.42 350.00,197.02
             348.17,196.11 333.81,195.04 331.00,195.00
             328.74,194.98 324.05,194.82 322.09,195.60
             317.77,197.32 311.21,208.81 308.28,213.00
             308.28,213.00 272.28,265.00 272.28,265.00
             272.28,265.00 169.98,413.00 169.98,413.00
             169.98,413.00 125.67,477.00 125.67,477.00
             125.67,477.00 115.00,493.00 115.00,493.00 Z" />  
  <path id="選択範囲 #2"
        fill="black" stroke="" stroke-width="1"
        d="M 518.00,336.21
           C 518.00,336.21 495.00,338.28 495.00,338.28
             472.11,341.04 449.06,345.19 427.00,352.02
             405.28,358.75 383.26,366.88 363.00,377.26
             289.27,415.05 226.70,476.24 190.26,551.00
             126.20,682.40 138.87,837.01 225.88,955.00
             247.68,984.56 273.81,1010.85 303.00,1033.12
             337.11,1059.13 374.36,1078.45 415.00,1092.00
             447.51,1102.84 479.89,1108.75 514.00,1111.09
             514.00,1111.09 524.00,1112.00 524.00,1112.00
             524.00,1112.00 550.00,1112.00 550.00,1112.00
             550.00,1112.00 562.00,1111.09 562.00,1111.09
             591.24,1109.09 619.82,1104.68 648.00,1096.28
             765.22,1061.35 859.74,974.12 901.95,859.00
             915.19,822.87 922.47,786.29 925.09,748.00
             925.09,748.00 926.00,736.00 926.00,736.00
             926.00,736.00 926.00,710.00 926.00,710.00
             926.00,710.00 925.09,700.00 925.09,700.00
             923.65,678.93 920.99,658.67 916.42,638.00
             884.46,493.26 768.74,377.54 624.00,345.58
             603.33,341.01 583.07,338.35 562.00,336.91
             562.00,336.91 552.00,336.21 552.00,336.21
             552.00,336.21 518.00,336.21 518.00,336.21 Z" />
</svg>
